<svg id="Layer_1" data-name="Layer 1" xmlns="http://www.w3.org/2000/svg" viewBox="0 0 189.48 189.48"><defs><style>.cls-1{fill:#fff;}.cls-2{fill:#0a4e8b;}.cls-3{fill:#0033a1;}.cls-4{fill:#e1251b;}</style></defs><circle class="cls-1" cx="94.74" cy="94.74" r="94.74"/><path class="cls-2" d="M168,122.5V98.61a6.85,6.85,0,0,0-4.69-6.5l-16-6.11L125.73,53.69a6.84,6.84,0,0,0-5.7-3H51.49A6.84,6.84,0,0,0,45,55.32L39.7,71.2H20.63v6.85h24l6.85-20.56H120l4.57,6.85H110.42V91.76h32.45l18.28,6.85V122.5h-7.22a17.14,17.14,0,0,0-33.54,0H86.06a17.13,17.13,0,0,0-33.53,0H44.64V98.61H37.78l0,30.84H52.51a17.13,17.13,0,0,0,33.57,0h34.29a17.14,17.14,0,0,0,33.58,0H168V122.6h0S168,122.53,168,122.5ZM117.27,84.9V71.2h11.89l9.14,13.7Zm27.16,48.39a10.28,10.28,0,1,1,3-7.27A10.21,10.21,0,0,1,144.43,133.29Zm-67.86,0a10.28,10.28,0,1,1,3-7.27A10.22,10.22,0,0,1,76.57,133.29Z"/><path class="cls-2" d="M13.79,70.82a3.8,3.8,0,1,0,3.81,3.8A3.8,3.8,0,0,0,13.79,70.82Z"/><path class="cls-2" d="M20.64,92.13a3.8,3.8,0,1,0-3.79-3.8A3.8,3.8,0,0,0,20.64,92.13Z"/><polygon class="cls-2" points="44.64 91.76 44.64 91.76 44.64 84.9 44.64 84.9 27.49 84.9 27.49 84.9 27.49 91.76 27.49 91.76 44.64 91.76"/><path class="cls-3" d="M141,126a3.8,3.8,0,1,0-3.81,3.8A3.81,3.81,0,0,0,141,126Z"/><path class="cls-4" d="M72.79,81.07a11.88,11.88,0,0,1,.55-4.41,2.22,2.22,0,0,1,2.23-1.16c.91,0,1.49.27,1.74.79a9.71,9.71,0,0,1,.39,3.48V95.7h7V81.07a12.51,12.51,0,0,1,.51-4.46A2.15,2.15,0,0,1,87.4,75.5a1.81,1.81,0,0,1,1.81.84,10.64,10.64,0,0,1,.4,3.66V95.7h7V79.29a19.85,19.85,0,0,0-.57-5.86A4.81,4.81,0,0,0,94,71a7.57,7.57,0,0,0-4-.89A6.18,6.18,0,0,0,83.88,74c-.62-2.61-2.43-3.92-5.4-3.92A6.2,6.2,0,0,0,72.41,74V70.53H65.78V95.7h7Z"/><path class="cls-3" d="M73.1,126a3.81,3.81,0,1,0-3.81,3.8A3.81,3.81,0,0,0,73.1,126Z"/></svg>