<svg id="Layer_1" data-name="Layer 1" xmlns="http://www.w3.org/2000/svg" viewBox="0 0 189.49 189.49"><defs><style>.cls-1{fill:#fff;}.cls-2{fill:#dd1321;}.cls-3{fill:#0a4d8c;}</style></defs><circle class="cls-1" cx="94.74" cy="94.74" r="94.74"/><path class="cls-2" d="M214.22,209.17v29.6h8.24v-17.2a13.79,13.79,0,0,1,.65-5.19,2.62,2.62,0,0,1,2.62-1.36c1.07,0,1.75.32,2.05.93a11.63,11.63,0,0,1,.45,4.1v18.73h8.24V221.57a14.56,14.56,0,0,1,.6-5.25,2.54,2.54,0,0,1,2.57-1.3c1.1,0,1.81.33,2.12,1a12,12,0,0,1,.48,4.3v18.46h8.25v-19.3a23,23,0,0,0-.68-6.88,5.63,5.63,0,0,0-2.41-2.89,8.83,8.83,0,0,0-4.65-1,7.26,7.26,0,0,0-7.24,4.61c-.73-3.07-2.86-4.61-6.36-4.61a7.29,7.29,0,0,0-7.14,4.61v-4.09Z" transform="translate(-134.51 -126.26)"/><path class="cls-3" d="M174.36,230.1a4.48,4.48,0,1,1-4.48-4.47A4.48,4.48,0,0,1,174.36,230.1Zm23.74-4H177.93v8.07H198.1Zm-36.3-16.56a4.48,4.48,0,1,0,4.48,4.48A4.48,4.48,0,0,0,161.8,209.51Zm88.69-39.86h24.18V278.47H190V242.19h8.06v28.22h68.51V177.72H250.49v8.06h-8.07v-8.06H222.27v8.06h-8.05v-8.06H198.09V218H169.84V210H190v-40.3h24.19V161.6a8.05,8.05,0,0,1,8.05-8.06h20.15a8.06,8.06,0,0,1,8.07,8.06v8.05Zm-8.06,0v-8.06H222.28v8.06Z" transform="translate(-134.51 -126.26)"/></svg>