<?xml version="1.0" encoding="utf-8"?>
<!-- Generator: Adobe Illustrator 26.0.1, SVG Export Plug-In . SVG Version: 6.00 Build 0)  -->
<svg version="1.1" id="Layer_1" xmlns="http://www.w3.org/2000/svg" xmlns:xlink="http://www.w3.org/1999/xlink" x="0px" y="0px"
	 viewBox="0 0 106 42" style="enable-background:new 0 0 106 42;" xml:space="preserve">
<style type="text/css">
	.st0{fill:#DD1321;}
	.st1{fill:#0A4D8C;}
	.st2{fill:#DD1321;stroke:#DD1321;stroke-width:2;stroke-miterlimit:10;}
</style>
<desc>Created with Sketch.</desc>
<g id="Page-1">
	<g id="MeijerLogo-Primary-FullColor">
		<path id="Meijer-Logo-_x2F_-Primary-_x2F_-Red" class="st0" d="M30.1,18.7c-1.4,0-2.1,1.2-2.2,3.7h4.3c0-0.2,0-0.4,0-0.5
			C32.3,19.7,31.6,18.7,30.1,18.7z M60.5,18.7c-1.4,0-2.1,1.2-2.2,3.7h4.3c0-0.2,0-0.4,0-0.5C62.7,19.7,62,18.7,60.5,18.7z
			 M0.4,15.8h4.5v2.3c0.8-1.8,2.2-2.6,4.1-2.6c2,0,3.2,0.9,3.6,2.6c0.8-1.8,2.1-2.6,4.1-2.6c1.1,0,2,0.2,2.7,0.6
			c0.7,0.4,1.1,0.9,1.4,1.6c0.3,0.7,0.4,2,0.4,3.9v11h-4.7V22.2c0-1.3-0.1-2.1-0.3-2.5c-0.2-0.4-0.6-0.6-1.2-0.6
			c-0.8,0-1.2,0.2-1.5,0.7c-0.2,0.5-0.3,1.5-0.3,3v9.8H8.4V22c0-1.2-0.1-2-0.3-2.3c-0.2-0.4-0.6-0.5-1.2-0.5c-0.8,0-1.3,0.3-1.5,0.8
			c-0.2,0.5-0.4,1.5-0.4,3v9.8H0.4V15.8z M30.1,29.8c1.4,0,2.1-0.9,2.4-2.6h4.2c-0.7,3.9-3,5.9-6.7,5.9c-2.3,0-4-0.8-5.2-2.3
			c-1.2-1.6-1.8-3.6-1.8-6.2c0-2.9,0.6-5.2,1.9-6.7c1.3-1.5,2.9-2.3,5.1-2.3c1.9,0,3.5,0.7,4.8,2c1.3,1.4,1.9,3.9,1.9,7.5h-8.8V26
			c0,1.5,0.2,2.5,0.6,3C28.9,29.6,29.5,29.8,30.1,29.8z M39.1,15.8h4.7v16.9h-4.7V15.8z M46.6,15.7h4.8v16.4c0,1.7-0.1,3.1-0.3,3.9
			c-0.2,0.9-0.6,1.6-1.4,2.1c-0.7,0.5-1.6,0.8-2.8,0.8c-0.7,0-1.6-0.1-2.5-0.2v-3.9c0.2,0,0.4,0.1,0.6,0.1c0.7,0,1.1-0.2,1.3-0.5
			c0.2-0.3,0.3-1.1,0.3-2.3V15.7z M60.6,29.8c1.4,0,2.1-0.9,2.4-2.6h4.2c-0.7,3.9-3,5.9-6.7,5.9c-2.3,0-4-0.8-5.2-2.3
			c-1.2-1.6-1.8-3.6-1.8-6.2c0-2.9,0.6-5.2,1.9-6.7c1.3-1.5,2.9-2.3,5.1-2.3c1.9,0,3.5,0.7,4.8,2c1.3,1.4,1.9,3.9,1.9,7.5h-8.8V26
			c0,1.5,0.2,2.5,0.6,3C59.4,29.6,59.9,29.8,60.6,29.8z M69.4,15.8h4.2v4.1c0.7-2.9,2.1-4.3,4-4.3c0.2,0,0.5,0,0.8,0.1v4.7
			c-0.3,0-0.6-0.1-0.8-0.1c-2.3,0-3.4,1.7-3.4,5.2v7.3h-4.7V15.8z"/>
		<g>
			<path id="Meijer-Logo-_x2F_--Primary-_x2F_-Blue" class="st1" d="M44,11.4c0,1.3-1.1,2.3-2.4,2.3s-2.4-1-2.4-2.3
				c0-1.3,1.1-2.3,2.4-2.3S44,10.1,44,11.4z M50.8,11.4c0,1.3-1.1,2.3-2.4,2.3c-1.3,0-2.4-1-2.4-2.3c0-1.3,1.1-2.3,2.4-2.3
				C49.7,9.1,50.8,10.1,50.8,11.4z"/>
		</g>
	</g>
</g>
<g>
	<path class="st2" d="M81.5,31.4c0-0.7,0.1-1.7,0.1-2.6v-12h1.8V23h0c0.6-1.1,1.8-1.8,3.4-1.8c2.5,0,4.2,2.1,4.2,5.1
		c0,3.6-2.2,5.3-4.5,5.3c-1.4,0-2.6-0.6-3.3-1.9h-0.1L83,31.4H81.5z M83.3,27.4c0,0.2,0,0.5,0.1,0.7c0.3,1.3,1.4,2.1,2.7,2.1
		c1.9,0,3-1.5,3-3.8c0-2-1-3.7-3-3.7c-1.2,0-2.4,0.8-2.8,2.2c0,0.2-0.1,0.5-0.1,0.7V27.4z"/>
</g>
<g>
	<path class="st2" d="M103.2,31.2l-0.1-1.6H103c-0.7,1.3-1.9,1.9-3.3,1.9c-2.2,0-4.5-1.8-4.5-5.3c0-3,1.7-5.1,4.2-5.1
		c1.6,0,2.8,0.7,3.4,1.8h0v-6.3h1.8v12c0,0.9,0,1.9,0.1,2.6H103.2z M102.9,25.4c0-0.3-0.1-0.5-0.1-0.7c-0.4-1.4-1.5-2.2-2.8-2.2
		c-1.9,0-3,1.7-3,3.7c0,2.3,1.1,3.8,3,3.8c1.3,0,2.4-0.9,2.7-2.1c0-0.2,0.1-0.4,0.1-0.7V25.4z"/>
</g>
</svg>
